<svg xmlns="http://www.w3.org/2000/svg" xmlns:xlink="http://www.w3.org/1999/xlink" x="0" y="2640" width="82px" height="66px" viewBox="0 0 82 66" version="1.1"><title>teachers</title><g id="teachers" stroke="none" stroke-width="1" fill="none" fill-rule="evenodd"><g id="Group-5-Copy-4" transform="translate(1.000000, 6.000000)"><path d="M62.4369625,-2 L17.5630375,-2 C12.6282012,-2 10.8668192,-1.41548743 9.07025832,-0.45467615 C7.11952904,0.588585286 5.58858529,2.11952904 4.54532385,4.07025832 C3.58451257,5.86681923 3,7.62820119 3,12.5630375 L3,41.4369625 C3,46.3717988 3.58451257,48.1331808 4.54532385,49.9297417 C5.58858529,51.880471 7.11952904,53.4114147 9.07025832,54.4546762 C10.8668192,55.4154874 12.6282012,56 17.5630375,56 L62.4369625,56 C67.3717988,56 69.1331808,55.4154874 70.9297417,54.4546762 C72.880471,53.4114147 74.4114147,51.880471 75.4546762,49.9297417 C76.4154874,48.1331808 77,46.3717988 77,41.4369625 L77,12.5630375 C77,7.62820119 76.4154874,5.86681923 75.4546762,4.07025832 C74.4114147,2.11952904 72.880471,0.588585286 70.9297417,-0.45467615 C69.1331808,-1.41548743 67.3717988,-2 62.4369625,-2 Z" id="Rectangle-3" stroke="#FFFFFF" stroke-width="4" fill="#78C800" fill-rule="nonzero"/><path d="M62.4369625,-2 L17.5630375,-2 C12.6282012,-2 10.8668192,-1.41548743 9.07025832,-0.45467615 C7.11952904,0.588585286 5.58858529,2.11952904 4.54532385,4.07025832 C3.58451257,5.86681923 3,7.62820119 3,12.5630375 L3,41.4369625 C3,46.3717988 3.58451257,48.1331808 4.54532385,49.9297417 C5.58858529,51.880471 7.11952904,53.4114147 9.07025832,54.4546762 C10.8668192,55.4154874 12.6282012,56 17.5630375,56 L62.4369625,56 C67.3717988,56 69.1331808,55.4154874 70.9297417,54.4546762 C72.880471,53.4114147 74.4114147,51.880471 75.4546762,49.9297417 C76.4154874,48.1331808 77,46.3717988 77,41.4369625 L77,12.5630375 C77,7.62820119 76.4154874,5.86681923 75.4546762,4.07025832 C74.4114147,2.11952904 72.880471,0.588585286 70.9297417,-0.45467615 C69.1331808,-1.41548743 67.3717988,-2 62.4369625,-2 Z" id="Rectangle-3-Copy-4" stroke="#FFFFFF" stroke-width="4" fill="#78C800" fill-rule="nonzero"/><g id="Page-1" transform="translate(0.000000, 2.000000)"><g id="Group-112" transform="translate(0.000000, 1.148238)"><path d="M52.3111941,6.76295718 L50.0689274,6.76295718 C49.2282015,6.76295718 48.5462904,7.45191955 48.5462904,8.30133895 C48.5462904,9.15125978 49.2282015,9.84022215 50.0689274,9.84022215 L52.3111941,9.84022215 C53.15192,9.84022215 53.8338311,9.15125978 53.8338311,8.30133895 C53.8338311,7.45191955 53.15192,6.76295718 52.3111941,6.76295718" id="Fill-82" fill="#A560E8"/><path d="M52.2733763,11.05423 L50.1065467,11.05423 C49.6201763,11.05423 49.226117,11.452364 49.226117,11.9437637 C49.226117,12.4346619 49.6201763,12.8327959 50.1065467,12.8327959 L52.2733763,12.8327959 C52.7592504,12.8327959 53.1538059,12.4346619 53.1538059,11.9437637 C53.1538059,11.452364 52.7592504,11.05423 52.2733763,11.05423" id="Fill-83" fill="#A560E8"/><path d="M52.2733763,26.196961 L50.1065467,26.196961 C49.6201763,26.196961 49.226117,26.595095 49.226117,27.0859932 C49.226117,27.5773929 49.6201763,27.9755269 50.1065467,27.9755269 L52.2733763,27.9755269 C52.7592504,27.9755269 53.1538059,27.5773929 53.1538059,27.0859932 C53.1538059,26.595095 52.7592504,26.196961 52.2733763,26.196961" id="Fill-84" fill="#8F50D8"/><path d="M34.1340941,6.76295718 L31.8918274,6.76295718 C31.0511015,6.76295718 30.3691904,7.45191955 30.3691904,8.30133895 C30.3691904,9.15125978 31.0511015,9.84022215 31.8918274,9.84022215 L34.1340941,9.84022215 C34.9753163,9.84022215 35.6567311,9.15125978 35.6567311,8.30133895 C35.6567311,7.45191955 34.9753163,6.76295718 34.1340941,6.76295718" id="Fill-87" fill="#FFD836"/><path d="M34.0965244,11.05423 L31.9296948,11.05423 C31.4433244,11.05423 31.0492652,11.452364 31.0492652,11.9437637 C31.0492652,12.4346619 31.4433244,12.8327959 31.9296948,12.8327959 L34.0965244,12.8327959 C34.5823985,12.8327959 34.9764578,12.4346619 34.9764578,11.9437637 C34.9764578,11.452364 34.5823985,11.05423 34.0965244,11.05423" id="Fill-88" fill="#FFD836"/><path d="M33.4843926,22.8625135 L32.5419259,22.8625135 C31.7175778,22.8625135 31.049563,23.5374359 31.049563,24.3703082 L31.049563,26.4677824 C31.049563,27.3006547 31.7175778,27.975577 32.5419259,27.975577 L33.4843926,27.975577 C34.3087407,27.975577 34.9767556,27.3006547 34.9767556,26.4677824 L34.9767556,24.3703082 C34.9767556,23.5374359 34.3087407,22.8625135 33.4843926,22.8625135" id="Fill-89" fill="#FFC715"/><path d="M25.456403,22.8625135 L24.5139363,22.8625135 C23.6895881,22.8625135 23.0215733,23.5374359 23.0215733,24.3703082 L23.0215733,26.4677824 C23.0215733,27.3006547 23.6895881,27.975577 24.5139363,27.975577 L25.456403,27.975577 C26.2807511,27.975577 26.9487659,27.3006547 26.9487659,26.4677824 L26.9487659,24.3703082 C26.9487659,23.5374359 26.2807511,22.8625135 25.456403,22.8625135" id="Fill-94" fill="#2788E0"/><path d="M45.0152911,0.586163841 L39.3188022,0.586163841 C38.1500244,0.586163841 37.2020985,1.54389173 37.2020985,2.72475519 L37.2020985,28.9334052 C37.2020985,30.1147701 38.1500244,31.0719966 39.3188022,31.0719966 L45.0152911,31.0719966 C46.1840689,31.0719966 47.1319948,30.1147701 47.1319948,28.9334052 L47.1319948,2.72475519 C47.1319948,1.54389173 46.1840689,0.586163841 45.0152911,0.586163841" id="Fill-105" fill="#4495FF"/><path d="M42.3062578,7.1187205 L42.0278356,7.1187205 C41.196043,7.1187205 40.5215763,7.80016145 40.5215763,8.64055514 L40.5215763,16.9276593 C40.5215763,17.768053 41.196043,18.4494939 42.0278356,18.4494939 L42.3062578,18.4494939 C43.1380504,18.4494939 43.8130133,17.768053 43.8130133,16.9276593 L43.8130133,8.64055514 C43.8130133,7.80016145 43.1380504,7.1187205 42.3062578,7.1187205" id="Fill-106" fill="#2788E0"/><polygon id="Fill-107" fill="#2788E0" points="37.4909926 5.17217617 47.1320444 5.17217617 47.1320444 3.85442281 37.4909926 3.85442281"/><path d="M43.6303763,26.1967103 L40.7042133,26.1967103 C40.217843,26.1967103 39.8237837,26.5948443 39.8237837,27.0862439 C39.8237837,27.5771422 40.217843,27.9757776 40.7042133,27.9757776 L43.6303763,27.9757776 C44.1162504,27.9757776 44.5103096,27.5771422 44.5103096,27.0862439 C44.5103096,26.5948443 44.1162504,26.1967103 43.6303763,26.1967103" id="Fill-108" fill="#2788E0"/></g><g id="Group-145" transform="translate(11.459259, 0.342475)"><path d="M44.9952148,12.1701642 C44.9952148,18.8918095 39.601963,24.3403285 32.9496074,24.3403285 C26.2967556,24.3403285 20.904,18.8918095 20.904,12.1701642 C20.904,5.448519 26.2967556,0 32.9496074,0 C39.601963,0 44.9952148,5.448519 44.9952148,12.1701642" id="Fill-113" fill="#723A0F"/><path d="M41.9445807,21.754124 C41.9445807,30.6715234 34.789477,37.900614 25.9633437,37.900614 C17.1372104,37.900614 9.98260296,30.6715234 9.98260296,21.754124 C9.98260296,12.8367246 17.1372104,5.60763397 25.9633437,5.60763397 C34.789477,5.60763397 41.9445807,12.8367246 41.9445807,21.754124" id="Fill-115" fill="#97501A"/><path d="M46.747637,24.8217114 C46.747637,34.0269306 39.3617556,41.4896867 30.2502519,41.4896867 C21.1392444,41.4896867 13.753363,34.0269306 13.753363,24.8217114 C13.753363,15.6164922 21.1392444,8.15373603 30.2502519,8.15373603 C39.3617556,8.15373603 46.747637,15.6164922 46.747637,24.8217114" id="Fill-117" fill="#97501A"/><path d="M6.51900074,30.9316643 C6.51900074,34.3689548 9.27691926,37.1553914 12.6790304,37.1553914 C16.0811415,37.1553914 18.83906,34.3689548 18.83906,30.9316643 C18.83906,27.4943739 16.0811415,24.7079373 12.6790304,24.7079373 C9.27691926,24.7079373 6.51900074,27.4943739 6.51900074,30.9316643" id="Fill-125" fill="#FD937E"/><path d="M33.7179237,6.55312702 C35.8524941,8.73784976 35.5969015,12.4900371 33.1466867,14.9334968 C30.6964719,17.3769565 26.9797089,17.5865535 24.8451385,15.4018308 L33.7179237,6.55312702 Z" id="Fill-127" fill="#97501A"/><path d="M33.7179237,6.55312702 C35.8524941,8.73784976 35.5969015,12.4900371 33.1466867,14.9334968 C30.6964719,17.3769565 26.9797089,17.5865535 24.8451385,15.4018308 L33.7179237,6.55312702 Z" id="Stroke-129" stroke="#97501A" stroke-width="2.33061619" stroke-linecap="round" stroke-linejoin="round"/><path d="M33.433397,20.5113341 C30.4898637,19.7496647 28.7965007,16.4006256 29.6506267,13.031028 C30.5047526,9.66143039 33.5837748,7.54740903 36.5268119,8.30907849 L33.433397,20.5113341 Z" id="Fill-135" fill="#97501A"/><path d="M33.433397,20.5113341 C30.4898637,19.7496647 28.7965007,16.4006256 29.6506267,13.031028 C30.5047526,9.66143039 33.5837748,7.54740903 36.5268119,8.30907849 L33.433397,20.5113341 Z" id="Stroke-137" stroke="#97501A" stroke-width="1.45676053" stroke-linecap="round" stroke-linejoin="round"/><path d="M38.1840941,30.9316643 C38.1840941,34.3689548 40.9420126,37.1553914 44.3441237,37.1553914 C47.7462348,37.1553914 50.503657,34.3689548 50.503657,30.9316643 C50.503657,27.4943739 47.7462348,24.7079373 44.3441237,24.7079373 C40.9420126,24.7079373 38.1840941,27.4943739 38.1840941,30.9316643" id="Fill-141" fill="#FD937E"/></g><g id="Group-213" transform="translate(14.437037, 6.589681)"><path d="M25.5314667,41.6046495 L24.9746222,41.6046495 C16.2497333,41.6046495 9.112,34.3926074 9.112,25.5780008 L9.112,19.8050577 C9.112,10.9904511 16.2497333,3.77840909 24.9746222,3.77840909 L25.5314667,3.77840909 C34.2558593,3.77840909 41.3940889,10.9904511 41.3940889,19.8050577 L41.3940889,25.5780008 C41.3940889,34.3926074 34.2558593,41.6046495 25.5314667,41.6046495" id="Fill-157" fill="#FFB5A1"/><path d="M32.0058007,23.5239031 L32.0058007,23.5239031 C30.8414896,23.5239031 29.889097,22.5616623 29.889097,21.3853117 L29.889097,17.3533274 C29.889097,16.1769768 30.8414896,15.2147361 32.0058007,15.2147361 C33.1701119,15.2147361 34.1225044,16.1769768 34.1225044,17.3533274 L34.1225044,21.3853117 C34.1225044,22.5616623 33.1701119,23.5239031 32.0058007,23.5239031" id="Fill-159" fill="#E58D7F"/><path d="M33.28292,23.839502 L30.7289793,23.839502 C29.8118237,23.839502 29.06192,23.0813425 29.06192,22.1547032 C29.06192,21.2280638 29.8118237,20.4704058 30.7289793,20.4704058 L33.28292,20.4704058 C34.2000756,20.4704058 34.9499793,21.2280638 34.9499793,22.1547032 C34.9499793,23.0813425 34.2000756,23.839502 33.28292,23.839502" id="Fill-161" fill="#FFB5A1"/><path d="M18.7243163,23.5239031 L18.7243163,23.5239031 C17.5600052,23.5239031 16.6076126,22.5616623 16.6076126,21.3853117 L16.6076126,17.3533274 C16.6076126,16.1769768 17.5600052,15.2147361 18.7243163,15.2147361 C19.8886274,15.2147361 20.84102,16.1769768 20.84102,17.3533274 L20.84102,21.3853117 C20.84102,22.5616623 19.8886274,23.5239031 18.7243163,23.5239031" id="Fill-163" fill="#E58D7F"/><path d="M20.0011874,23.839502 L17.4472467,23.839502 C16.5300911,23.839502 15.7801874,23.0813425 15.7801874,22.1547032 C15.7801874,21.2280638 16.5300911,20.4704058 17.4472467,20.4704058 L20.0011874,20.4704058 C20.918343,20.4704058 21.6682467,21.2280638 21.6682467,22.1547032 C21.6682467,23.0813425 20.918343,23.839502 20.0011874,23.839502" id="Fill-165" fill="#FFB5A1"/><path d="M12.6095489,26.8938517 C12.6095489,27.1440644 12.8100526,27.3466414 13.0577044,27.3466414 C13.3053563,27.3466414 13.50586,27.1440644 13.50586,26.8938517 C13.50586,26.643639 13.3053563,26.441062 13.0577044,26.441062 C12.8100526,26.441062 12.6095489,26.643639 12.6095489,26.8938517" id="Fill-167" fill="#FF9D8A"/><path d="M38.053717,27.1528895 C38.2537244,27.3003094 38.5341319,27.2556823 38.680043,27.0536067 C38.8259541,26.8515311 38.7817837,26.5682242 38.5817763,26.4213057 C38.3817689,26.2738858 38.1013615,26.3180115 37.9554504,26.5205885 C37.8100356,26.7226641 37.8537096,27.005971 38.053717,27.1528895" id="Fill-169" fill="#FF9D8A"/><path d="M26.8350771,30.4123319 L23.895159,30.4123319 C22.903276,30.4123319 22.0914756,29.8427094 22.0914756,29.1472285 L22.0914756,21.8369065 C22.0914756,21.1414256 22.903276,20.5718031 23.895159,20.5718031 L26.8350771,20.5718031 C27.8269601,20.5718031 28.6380459,21.1414256 28.6380459,21.8369065 L28.6380459,29.1472285 C28.6380459,29.8427094 27.8269601,30.4123319 26.8350771,30.4123319" id="Fill-171" fill="#FD937E"/><path d="M14.2530341,25.2466098 C14.2530341,25.6071367 14.5423748,25.898968 14.8987156,25.898968 C15.2555526,25.898968 15.5448933,25.6071367 15.5448933,25.2466098 C15.5448933,24.8865844 15.2555526,24.5942517 14.8987156,24.5942517 C14.5423748,24.5942517 14.2530341,24.8865844 14.2530341,25.2466098" id="Fill-173" fill="#FF9D8A"/><path d="M11.7662422,23.3711179 C11.7662422,23.7316448 12.055583,24.023476 12.4119237,24.023476 C12.7687607,24.023476 13.0581015,23.7316448 13.0581015,23.3711179 C13.0581015,23.010591 12.7687607,22.7187598 12.4119237,22.7187598 C12.055583,22.7187598 11.7662422,23.010591 11.7662422,23.3711179" id="Fill-175" fill="#FF9D8A"/><path d="M35.0887933,25.2466098 C35.0887933,25.6071367 35.3781341,25.898968 35.7344748,25.898968 C36.0913119,25.898968 36.3806526,25.6071367 36.3806526,25.2466098 C36.3806526,24.8865844 36.0913119,24.5942517 35.7344748,24.5942517 C35.3781341,24.5942517 35.0887933,24.8865844 35.0887933,25.2466098" id="Fill-177" fill="#FF9D8A"/><path d="M37.3252533,23.9903316 C37.3252533,24.3508585 37.6145941,24.6426897 37.9709348,24.6426897 C38.3277719,24.6426897 38.6166163,24.3508585 38.6166163,23.9903316 C38.6166163,23.6303061 38.3277719,23.3379735 37.9709348,23.3379735 C37.6145941,23.3379735 37.3252533,23.6303061 37.3252533,23.9903316" id="Fill-179" fill="#FF9D8A"/><line x1="22.5335393" y1="21.0473542" x2="28.19628" y2="21.0473542" id="Stroke-197" stroke="#97501A" stroke-width="2"/><path d="M40.1014356,18.2003901 C41.1734356,18.756474 42.3486652,18.3538272 42.97648,17.4983906 C42.4350207,9.47403487 36.6109837,2.91585522 28.9873763,1.3534049 C29.5645689,8.71086112 33.91808,14.991751 40.1014356,18.2003901" id="Fill-199" fill="#97501A"/><path d="M32.1517119,3.65039742 C29.6240748,1.6527074 26.4438081,0.458806818 22.9856156,0.458806818 C14.7600007,0.458806818 8.0917637,7.19599634 8.0917637,15.507169 C8.0917637,16.2502856 8.14734889,16.9798637 8.25008222,17.6943989 C17.8712822,16.1404729 26.2998822,10.9903037 32.1517119,3.65039742" id="Fill-201" fill="#97501A"/><g id="Group-9" transform="translate(11.853553, 15.557367)"><path d="M5.64262809,-1.5 C3.71917311,-1.5 1.97705479,-0.713471627 0.716271755,0.56034846 C-0.538954979,1.82855479 -1.31663117,3.58019685 -1.31663117,5.51571038 C-1.31663117,7.45122391 -0.538954979,9.20286598 0.716271755,10.4710723 C1.97705479,11.7448924 3.71917311,12.5314208 5.64262809,12.5314208 C7.56608307,12.5314208 9.30820139,11.7448924 10.5689844,10.4710723 C11.8242112,9.20286598 12.6018874,7.45122391 12.6018874,5.51571038 C12.6018874,3.58019685 11.8242112,1.82855479 10.5689844,0.56034846 C9.30820139,-0.713471627 7.56608307,-1.5 5.64262809,-1.5 Z" id="Stroke-207" stroke="#97501A" stroke-width="3" fill="#FFB5A1"/><path d="M5.64262809,0 C6.9506601,0 8.1512682,0.46481177 9.09146656,1.23986756 L1.375168,8.95594017 C0.62930038,8.01273652 0.183368832,6.81682488 0.183368832,5.51571038 C0.183368832,2.46953397 2.62762809,0 5.64262809,0 Z" id="Combined-Shape" fill="#FFCBBD"/></g><g id="Group-9-Copy" transform="translate(27.853553, 15.557367)"><path d="M5.64262809,-1.5 C3.71917311,-1.5 1.97705479,-0.713471627 0.716271755,0.56034846 C-0.538954979,1.82855479 -1.31663117,3.58019685 -1.31663117,5.51571038 C-1.31663117,7.45122391 -0.538954979,9.20286598 0.716271755,10.4710723 C1.97705479,11.7448924 3.71917311,12.5314208 5.64262809,12.5314208 C7.56608307,12.5314208 9.30820139,11.7448924 10.5689844,10.4710723 C11.8242112,9.20286598 12.6018874,7.45122391 12.6018874,5.51571038 C12.6018874,3.58019685 11.8242112,1.82855479 10.5689844,0.56034846 C9.30820139,-0.713471627 7.56608307,-1.5 5.64262809,-1.5 Z" id="Stroke-207" stroke="#97501A" stroke-width="3" fill="#FFB5A1"/><path d="M5.64262809,0 C6.9506601,0 8.1512682,0.46481177 9.09146656,1.23986756 L1.375168,8.95594017 C0.62930038,8.01273652 0.183368832,6.81682488 0.183368832,5.51571038 C0.183368832,2.46953397 2.62762809,0 5.64262809,0 Z" id="Combined-Shape" fill="#FFCBBD"/></g></g></g><path d="M61.1053184,36 L61.210064,40.2618634 L62.6550357,52.5801083 C61.6765308,52.8567616 60.3840756,53 58.3719117,53 L21.5392496,53 C19.2356148,53 17.8752962,52.8122587 16.8494327,52.4515164 L18.7298974,40.6286169 L18.6484286,36 L38.2623631,44.0468222 C39.2307999,44.4441336 40.3163954,44.4459885 41.2861843,44.0519889 L61.1053184,36 Z" id="Combined-Shape-Copy" fill="#F9F9F9" fill-rule="nonzero"/><path d="M65.7671233,37 L65.8947368,41.2618634 L67.6550542,53.5801358 C66.4629375,53.8567712 64.8883381,54 62.4369625,54 L17.5630375,54 C14.7566445,54 13.0993732,53.8122812 11.8495706,53.4515815 L14.1403509,41.6286169 L14.0410959,37 L38.5074927,45.2388909 C39.3318536,45.5164888 40.224237,45.5178015 41.049411,45.2426302 L65.7671233,37 Z" id="Combined-Shape" fill="#FFFFFF" fill-rule="nonzero"/><path d="M12,39.4256374 C12.4010553,39.4256374 12.7998302,39.4859525 13.1829462,39.6045592 L39.1071864,47.6302994 C39.8847641,47.8710254 40.717278,47.868793 41.4935535,47.6239006 L66.7965791,39.6415286 C68.9033683,38.9768976 71.1500483,40.1459979 71.8146793,42.2527871 C71.9375025,42.6421199 72,43.047961 72,43.4562079 L72.0003644,51.2322614 C71.4084451,51.8024587 70.7352624,52.2906308 69.986544,52.6910498 C68.3895069,53.5451545 66.8054044,54 62.4369625,54 L17.5630375,54 C13.1945956,54 11.6104931,53.5451545 10.013456,52.6910498 C9.26516692,52.2908604 8.59232694,51.8030185 8.00065393,51.2332421 L8,43.4256374 C8,41.2164984 9.790861,39.4256374 12,39.4256374 Z" id="Combined-Shape" fill="#1CB0F6" fill-rule="nonzero"/><path d="M71.8146793,42.2527871 C71.9375025,42.6421199 72,43.047961 72,43.4562079 L72,51.2326123 C71.4081688,51.8026591 70.7351088,52.2907129 69.986544,52.6910498 C68.3895069,53.5451545 66.8054044,54 62.4369625,54 L40,53.9991361 L40.0001521,47.7986977 C40.5018319,47.8351591 41.0086639,47.7768692 41.4935535,47.6239006 L66.7965791,39.6415286 C68.9033683,38.9768976 71.1500483,40.1459979 71.8146793,42.2527871 Z" id="Combined-Shape" fill="#039CE5" fill-rule="nonzero"/></g></g></svg>