<svg xmlns="http://www.w3.org/2000/svg" xmlns:xlink="http://www.w3.org/1999/xlink" x="0" y="2574" width="82px" height="66px" viewBox="0 0 82 66" version="1.1"><title>troubleshooting</title><g id="troubleshooting" stroke="none" stroke-width="1" fill="none" fill-rule="evenodd"><g id="Group-5-Copy-3" transform="translate(6.000000, 6.000000)" fill-rule="nonzero"><path d="M57.4369625,-2 L12.5630375,-2 C7.62820119,-2 5.86681923,-1.41548743 4.07025832,-0.45467615 C2.11952904,0.588585286 0.588585286,2.11952904 -0.45467615,4.07025832 C-1.41548743,5.86681923 -2,7.62820119 -2,12.5630375 L-2,41.4369625 C-2,46.3717988 -1.41548743,48.1331808 -0.45467615,49.9297417 C0.588585286,51.880471 2.11952904,53.4114147 4.07025832,54.4546762 C5.86681923,55.4154874 7.62820119,56 12.5630375,56 L57.4369625,56 C62.3717988,56 64.1331808,55.4154874 65.9297417,54.4546762 C67.880471,53.4114147 69.4114147,51.880471 70.4546762,49.9297417 C71.4154874,48.1331808 72,46.3717988 72,41.4369625 L72,12.5630375 C72,7.62820119 71.4154874,5.86681923 70.4546762,4.07025832 C69.4114147,2.11952904 67.880471,0.588585286 65.9297417,-0.45467615 C64.1331808,-1.41548743 62.3717988,-2 57.4369625,-2 Z" id="Rectangle-3" stroke="#FFFFFF" stroke-width="4" fill="#1CB0F6"/><g id="Group" transform="translate(33.627417, 26.627417) scale(-1, 1) rotate(45.000000) translate(-33.627417, -26.627417) translate(26.627417, 1.627417)"><rect id="Rectangle" fill="#C7C7C7" x="4.45454545" y="7.76308363" width="4.45454545" height="35.5274086" rx="2.22727273"/><path d="M12.3272958,22.4321705 C13.2511048,22.4321705 14,23.1810657 14,24.1048747 L14,24.8646261 C14,26.2080342 12.9109526,27.2970816 11.5675445,27.2970816 L11.2682329,27.2962466 C12.9248541,28.514133 14,30.476804 14,32.6905887 L14,43.3091833 C14,47.0044193 11.0044193,50 7.30918332,50 L6.69081668,50 C2.99558066,50 9.10835416e-13,47.0044193 9.09494702e-13,43.3091833 L9.09494702e-13,32.6905887 C9.09755692e-13,30.476804 1.07514595,28.514133 2.73176713,27.2962466 L2.43245554,27.2970816 C1.08904744,27.2970816 9.09659222e-13,26.2080342 9.09494702e-13,24.8646261 L9.09494702e-13,24.1048747 C9.09603612e-13,23.1810657 0.748895166,22.4321705 1.67270417,22.4321705 L12.3272958,22.4321705 Z" id="Combined-Shape" fill="#F34848"/><path d="M5.45803177,0.373462499 L8.1177258,0.373462499 C8.49549418,0.373462499 8.82636521,0.626698859 8.92504167,0.991351984 L10.6855365,7.49715855 C10.7392908,7.69580458 10.7179202,7.90729582 10.625513,8.09117263 L8.98941369,11.3467704 C8.8474409,11.6292755 8.55829431,11.807571 8.24212131,11.807571 L5.33363627,11.807571 C5.01746327,11.807571 4.72831668,11.6292755 4.58634389,11.3467704 L2.95024455,8.09117263 C2.85783734,7.90729582 2.83646673,7.69580458 2.89022107,7.49715855 L4.65071591,0.991351984 C4.74939237,0.626698859 5.0802634,0.373462499 5.45803177,0.373462499 Z" id="Rectangle" fill="#C7C7C7"/><rect id="Rectangle" fill="#D73A3A" x="5.915867" y="29.7575971" width="2.33333333" height="16.9158361" rx="1.16666667"/><rect id="Rectangle-Copy-2" fill="#D73A3A" x="9.75757576" y="31.416113" width="2.33333333" height="13.2751938" rx="1.16666667"/><rect id="Rectangle-Copy-3" fill="#D73A3A" x="1.6969697" y="31.416113" width="2.33333333" height="13.2751938" rx="1.16666667"/></g><g id="Group" transform="translate(34.000000, 28.000000) rotate(45.000000) translate(-34.000000, -28.000000) translate(24.000000, 6.000000)"><path d="M13.1005976,12.26156 C14.8502358,12.26156 16.2685977,13.679922 16.2685977,15.4295601 L16.2685977,37.4391314 C16.2685977,40.7108759 13.6163248,43.3631489 10.3445803,43.3631489 C7.07283574,43.3631489 4.42056277,40.7108759 4.42056277,37.4391314 L4.42056277,15.4295601 C4.42056277,13.679922 5.83892473,12.26156 7.58856287,12.26156 L13.1005976,12.26156 Z M10.6586516,34.7251703 L10.3445803,34.7251703 C10.2421016,34.7251703 10.1397172,34.731381 10.03799,34.7437683 C8.6474579,34.9130935 7.65747407,36.1776076 7.82679921,37.5681397 L7.82679921,37.5681397 L7.88127095,38.0154725 C7.88314978,38.0309019 7.88517315,38.0463133 7.88734079,38.0617047 C8.07897742,39.4224261 9.33741224,40.3701566 10.6981336,40.17852 C12.1378935,39.975752 13.2085498,38.7437445 13.2085498,37.2897764 L13.2085498,37.2897764 L13.2085498,37.2750684 C13.2085498,35.8667986 12.0669215,34.7251703 10.6586516,34.7251703 L10.6586516,34.7251703 Z" id="Combined-Shape" fill="#D8D8D8"/><rect id="Rectangle" fill="#C7C7C7" x="8.4057971" y="14.5811163" width="3.1884058" height="16.3709338" rx="1.5942029"/><path d="M4.93310142,0.188713028 C5.41027546,0.188713028 5.79710145,0.575539015 5.79710145,1.05271305 L5.79710145,1.05271305 L5.79710145,9.37709548 C5.79710145,10.1723855 6.44181143,10.8170955 7.23710149,10.8170955 L7.23710149,10.8170955 L12.7628985,10.8170955 C13.5581886,10.8170955 14.2028986,10.1723855 14.2028986,9.37709548 L14.2028986,9.37709548 L14.2028986,1.05271305 C14.2028986,0.899708353 14.2435295,0.749447858 14.3206374,0.617293384 C14.561113,0.205144712 15.0901696,0.0659762253 15.5023182,0.306451868 L15.5023182,0.306451868 L16.2579127,0.746583164 C18.5308749,2.46225543 20,5.18634839 20,8.25357392 C20,13.4448182 15.791665,17.6531531 10.6004208,17.6531531 L9.39957922,17.6531531 C4.20833496,17.6531531 6.35744066e-16,13.4448182 0,8.25357392 C-3.75626792e-16,5.18634839 1.46912514,2.46225543 3.7420873,0.746583164 L4.49768175,0.306451868 C4.62983623,0.229343936 4.78009672,0.188713028 4.93310142,0.188713028 Z" id="Combined-Shape" fill="#D8D8D8"/></g></g></g></svg>